<?xml version="1.0" encoding="utf-8"?>
<!-- Generator: Adobe Illustrator 19.0.0, SVG Export Plug-In . SVG Version: 6.00 Build 0)  -->
<svg version="1.1" xmlns="http://www.w3.org/2000/svg" xmlns:xlink="http://www.w3.org/1999/xlink" x="0px" y="0px"
	 viewBox="0 0 2000 2000" style="enable-background:new 0 0 2000 2000;" xml:space="preserve">
<style type="text/css">
	.st0{display:none;}
	.st1{display:inline;fill:#1B5BEA;}
	.st2{fill:#81C784;}
	.st3{fill:#FFEA00;}
	.st4{fill:#0091EA;}
	.st5{fill:#5C6BC0;}
	.st6{fill:#111111;}
	.st7{display:inline;fill:#111111;}
	.st8{fill:#E0E0E0;}
	.st9{fill:#BDBDBD;}
	.st10{fill:#ADAFC4;}
	.st11{fill:#BFC7D1;}
	.st12{fill:#C7D2DD;}
	.st13{fill:#CED7DD;}
	.st14{fill:#CCD6DD;}
	.st15{fill:#DADDE0;}
	.st16{fill:#D3E0EA;}
	.st17{fill:#9E9E9E;}
	.st18{fill:#CFD8DC;}
	.st19{fill:#B0BEC5;}
	.st20{fill:#90A4AE;}
	.st21{fill:#424242;}
	.st22{fill:#546E7A;}
	.st23{fill:#616161;}
	.st24{fill:#607D8B;}
	.st25{fill:#757575;}
	.st26{fill:#78909C;}
	.st27{fill:#FFEBEE;}
	.st28{fill:#FFCDD2;}
	.st29{fill:#EF9A9A;}
	.st30{fill:#E53935;}
	.st31{fill:#D32F2F;}
	.st32{fill:#C62828;}
	.st33{fill:#F44336;}
	.st34{fill:#4FC3F7;}
	.st35{fill:#EF5350;}
	.st36{fill:#FFEB3B;}
	.st37{fill:#E57373;}
	.st38{fill:#B71C1C;}
	.st39{display:inline;fill:#DADDE0;}
	.st40{font-family:'Montserrat-SemiBold';}
	.st41{font-size:104.3918px;}
	.st42{fill:#1B5BEA;}
	.st43{opacity:0.24;fill:#E8A010;}
	.st44{opacity:0.24;fill:#D36513;}
	.st45{fill:#FFFFFF;}
	.st46{display:inline;}
</style>
<g id="Layer_2" class="st0">
	<rect class="st1" width="2000" height="2000"/>
</g>
<g id="Layer_1">
	<rect x="-2867.1" y="10.8" class="st2" width="524.1" height="380"/>
	<rect x="-2343" y="10.8" class="st3" width="475.9" height="380"/>
	<rect x="-1867.1" y="10.8" class="st4" width="475.9" height="380"/>
	<rect x="-1391.1" y="10.8" class="st5" width="524.1" height="380"/>
	<g>
		<path class="st6" d="M1093.3,1061.9c50.2-31.3,83.6-87.1,83.6-150.5c0-97.8-79.5-177.3-177.3-177.3
			c-97.8,0-177.3,79.5-177.3,177.3c0,63.4,33.4,119.1,83.6,150.5v147.4L726.3,979.5V1081l241.8,309.3l0.3,0.4V1086v-57.6h0v-6.4
			c-48.2-13.7-83.6-58-83.6-110.5c0-52.5,35.4-96.9,83.6-110.5c9.9-2.8,20.4-4.3,31.2-4.3c10.8,0,21.3,1.5,31.2,4.3
			c48.2,13.7,83.6,58,83.6,110.5c0,52.5-35.4,96.9-83.6,110.5v6h0v58v304.3l242.1-309.7V979.2l-179.6,229.8V1061.9z"/>
		<rect x="725.6" y="609.3" class="st6" width="548.8" height="62.5"/>
	</g>
	<g class="st0">
		<path class="st7" d="M1059.7,1000c32.1-20.1,53.5-55.7,53.5-96.3c0-62.6-50.9-113.5-113.5-113.5c-62.6,0-113.5,50.9-113.5,113.5
			c0,40.6,21.4,76.3,53.5,96.3v94.4l-115-147.1v65l154.8,198l0.2,0.2v-195.1v-36.9h0v-4.1c-30.9-8.7-53.5-37.2-53.5-70.8
			s22.7-62,53.5-70.8c6.4-1.8,13.1-2.8,20-2.8c6.9,0,13.6,1,20,2.8c30.9,8.7,53.5,37.2,53.5,70.8s-22.7,62-53.5,70.8v3.9h0v37.1
			v194.8l155-198.3v-64.9l-115,147.1V1000z"/>
		<rect x="824.3" y="710.3" class="st7" width="351.4" height="40"/>
	</g>
	<g>
		<path class="st8" d="M-2732.1,1866.4c10.2-6.4,17-17.7,17-30.6c0-19.9-16.2-36.1-36.1-36.1s-36.1,16.2-36.1,36.1
			c0,12.9,6.8,24.3,17,30.6v30l-36.6-46.8v20.7l49.2,63l0.1,0.1v-62v-11.7h0v-1.3c-9.8-2.8-17-11.8-17-22.5c0-10.7,7.2-19.7,17-22.5
			c2-0.6,4.2-0.9,6.4-0.9s4.3,0.3,6.4,0.9c9.8,2.8,17,11.8,17,22.5c0,10.7-7.2,19.7-17,22.5v1.2h0v11.8v62l49.3-63v-20.7l-36.6,46.8
			V1866.4z"/>
		<rect x="-2807" y="1774.3" class="st8" width="111.7" height="12.7"/>
	</g>
	<g>
		<path class="st9" d="M-2571.6,1866.4c10.2-6.4,17-17.7,17-30.6c0-19.9-16.2-36.1-36.1-36.1s-36.1,16.2-36.1,36.1
			c0,12.9,6.8,24.3,17,30.6v30l-36.6-46.8v20.7l49.2,63l0.1,0.1v-62v-11.7h0v-1.3c-9.8-2.8-17-11.8-17-22.5c0-10.7,7.2-19.7,17-22.5
			c2-0.6,4.2-0.9,6.4-0.9s4.3,0.3,6.4,0.9c9.8,2.8,17,11.8,17,22.5c0,10.7-7.2,19.7-17,22.5v1.2h0v11.8v62l49.3-63v-20.7l-36.6,46.8
			V1866.4z"/>
		<rect x="-2646.5" y="1774.3" class="st9" width="111.7" height="12.7"/>
	</g>
	<g>
		<path class="st10" d="M-2552.1,1577.8c20.7-12.9,34.5-35.9,34.5-62.1c0-40.4-32.8-73.2-73.2-73.2c-40.4,0-73.2,32.8-73.2,73.2
			c0,26.2,13.8,49.2,34.5,62.1v60.8l-74.2-94.9v41.9l99.8,127.7l0.1,0.1v-125.8V1564h0v-2.6c-19.9-5.6-34.5-24-34.5-45.6
			c0-21.7,14.6-40,34.5-45.6c4.1-1.2,8.4-1.8,12.9-1.8c4.5,0,8.8,0.6,12.9,1.8c19.9,5.6,34.5,24,34.5,45.6c0,21.7-14.6,40-34.5,45.6
			v2.5h0v23.9v125.6l99.9-127.8v-41.9l-74.2,94.8V1577.8z"/>
		<rect x="-2703.9" y="1391" class="st10" width="226.6" height="25.8"/>
	</g>
	<g>
		<path class="st11" d="M-2070.2,1577.8c20.7-12.9,34.5-35.9,34.5-62.1c0-40.4-32.8-73.2-73.2-73.2c-40.4,0-73.2,32.8-73.2,73.2
			c0,26.2,13.8,49.2,34.5,62.1v60.8l-74.2-94.9v41.9l99.8,127.7l0.1,0.1v-125.8V1564h0v-2.6c-19.9-5.6-34.5-24-34.5-45.6
			c0-21.7,14.6-40,34.5-45.6c4.1-1.2,8.4-1.8,12.9-1.8c4.5,0,8.8,0.6,12.9,1.8c19.9,5.6,34.5,24,34.5,45.6c0,21.7-14.6,40-34.5,45.6
			v2.5h0v23.9v125.6l99.9-127.8v-41.9l-74.2,94.8V1577.8z"/>
		<rect x="-2222" y="1391" class="st11" width="226.6" height="25.8"/>
	</g>
	<g>
		<path class="st12" d="M-1588.4,1577.8c20.7-12.9,34.5-35.9,34.5-62.1c0-40.4-32.8-73.2-73.2-73.2c-40.4,0-73.2,32.8-73.2,73.2
			c0,26.2,13.8,49.2,34.5,62.1v60.8l-74.2-94.9v41.9l99.8,127.7l0.1,0.1v-125.8V1564h0v-2.6c-19.9-5.6-34.5-24-34.5-45.6
			c0-21.7,14.6-40,34.5-45.6c4.1-1.2,8.4-1.8,12.9-1.8c4.5,0,8.8,0.6,12.9,1.8c19.9,5.6,34.5,24,34.5,45.6c0,21.7-14.6,40-34.5,45.6
			v2.5h0v23.9v125.6l99.9-127.8v-41.9l-74.2,94.8V1577.8z"/>
		<rect x="-1740.2" y="1391" class="st12" width="226.6" height="25.8"/>
	</g>
	<g>
		<path class="st13" d="M-1106.6,1577.8c20.7-12.9,34.5-35.9,34.5-62.1c0-40.4-32.8-73.2-73.2-73.2c-40.4,0-73.2,32.8-73.2,73.2
			c0,26.2,13.8,49.2,34.5,62.1v60.8l-74.2-94.9v41.9l99.8,127.7l0.1,0.1v-125.8V1564h0v-2.6c-19.9-5.6-34.5-24-34.5-45.6
			c0-21.7,14.6-40,34.5-45.6c4.1-1.2,8.4-1.8,12.9-1.8c4.5,0,8.8,0.6,12.9,1.8c19.9,5.6,34.5,24,34.5,45.6c0,21.7-14.6,40-34.5,45.6
			v2.5h0v23.9v125.6l99.9-127.8v-41.9l-74.2,94.8V1577.8z"/>
		<rect x="-1258.4" y="1391" class="st13" width="226.6" height="25.8"/>
	</g>
	<g>
		<path class="st14" d="M-2552.1,771.6c20.7-12.9,34.5-35.9,34.5-62.1c0-40.4-32.8-73.2-73.2-73.2c-40.4,0-73.2,32.8-73.2,73.2
			c0,26.2,13.8,49.2,34.5,62.1v60.8l-74.2-94.9v41.9l99.8,127.7l0.1,0.1V781.6v-23.8h0v-2.6c-19.9-5.6-34.5-24-34.5-45.6
			c0-21.7,14.6-40,34.5-45.6c4.1-1.2,8.4-1.8,12.9-1.8c4.5,0,8.8,0.6,12.9,1.8c19.9,5.6,34.5,24,34.5,45.6c0,21.7-14.6,40-34.5,45.6
			v2.5h0v23.9v125.6l99.9-127.8v-41.9l-74.2,94.8V771.6z"/>
		<rect x="-2703.9" y="584.8" class="st14" width="226.6" height="25.8"/>
	</g>
	<g>
		<path class="st12" d="M-2070.2,771.6c20.7-12.9,34.5-35.9,34.5-62.1c0-40.4-32.8-73.2-73.2-73.2c-40.4,0-73.2,32.8-73.2,73.2
			c0,26.2,13.8,49.2,34.5,62.1v60.8l-74.2-94.9v41.9l99.8,127.7l0.1,0.1V781.6v-23.8h0v-2.6c-19.9-5.6-34.5-24-34.5-45.6
			c0-21.7,14.6-40,34.5-45.6c4.1-1.2,8.4-1.8,12.9-1.8c4.5,0,8.8,0.6,12.9,1.8c19.9,5.6,34.5,24,34.5,45.6c0,21.7-14.6,40-34.5,45.6
			v2.5h0v23.9v125.6l99.9-127.8v-41.9l-74.2,94.8V771.6z"/>
		<rect x="-2222" y="584.8" class="st12" width="226.6" height="25.8"/>
	</g>
	<g>
		<path class="st15" d="M-1588.4,771.6c20.7-12.9,34.5-35.9,34.5-62.1c0-40.4-32.8-73.2-73.2-73.2c-40.4,0-73.2,32.8-73.2,73.2
			c0,26.2,13.8,49.2,34.5,62.1v60.8l-74.2-94.9v41.9l99.8,127.7l0.1,0.1V781.6v-23.8h0v-2.6c-19.9-5.6-34.5-24-34.5-45.6
			c0-21.7,14.6-40,34.5-45.6c4.1-1.2,8.4-1.8,12.9-1.8c4.5,0,8.8,0.6,12.9,1.8c19.9,5.6,34.5,24,34.5,45.6c0,21.7-14.6,40-34.5,45.6
			v2.5h0v23.9v125.6l99.9-127.8v-41.9l-74.2,94.8V771.6z"/>
		<rect x="-1740.2" y="584.8" class="st15" width="226.6" height="25.8"/>
	</g>
	<g>
		<path class="st16" d="M-1106.6,771.6c20.7-12.9,34.5-35.9,34.5-62.1c0-40.4-32.8-73.2-73.2-73.2c-40.4,0-73.2,32.8-73.2,73.2
			c0,26.2,13.8,49.2,34.5,62.1v60.8l-74.2-94.9v41.9l99.8,127.7l0.1,0.1V781.6v-23.8h0v-2.6c-19.9-5.6-34.5-24-34.5-45.6
			c0-21.7,14.6-40,34.5-45.6c4.1-1.2,8.4-1.8,12.9-1.8c4.5,0,8.8,0.6,12.9,1.8c19.9,5.6,34.5,24,34.5,45.6c0,21.7-14.6,40-34.5,45.6
			v2.5h0v23.9v125.6l99.9-127.8v-41.9l-74.2,94.8V771.6z"/>
		<rect x="-1258.4" y="584.8" class="st16" width="226.6" height="25.8"/>
	</g>
	<g>
		<path class="st17" d="M-2411.1,1866.4c10.2-6.4,17-17.7,17-30.6c0-19.9-16.2-36.1-36.1-36.1s-36.1,16.2-36.1,36.1
			c0,12.9,6.8,24.3,17,30.6v30l-36.6-46.8v20.7l49.2,63l0.1,0.1v-62v-11.7h0v-1.3c-9.8-2.8-17-11.8-17-22.5c0-10.7,7.2-19.7,17-22.5
			c2-0.6,4.2-0.9,6.4-0.9s4.3,0.3,6.4,0.9c9.8,2.8,17,11.8,17,22.5c0,10.7-7.2,19.7-17,22.5v1.2h0v11.8v62l49.3-63v-20.7l-36.6,46.8
			V1866.4z"/>
		<rect x="-2485.9" y="1774.3" class="st17" width="111.7" height="12.7"/>
	</g>
	<g>
		<path class="st18" d="M-1762.1,1866.4c10.2-6.4,17-17.7,17-30.6c0-19.9-16.2-36.1-36.1-36.1s-36.1,16.2-36.1,36.1
			c0,12.9,6.8,24.3,17,30.6v30l-36.6-46.8v20.7l49.2,63l0.1,0.1v-62v-11.7h0v-1.3c-9.8-2.8-17-11.8-17-22.5c0-10.7,7.2-19.7,17-22.5
			c2-0.6,4.2-0.9,6.4-0.9c2.2,0,4.3,0.3,6.4,0.9c9.8,2.8,17,11.8,17,22.5c0,10.7-7.2,19.7-17,22.5v1.2h0v11.8v62l49.3-63v-20.7
			l-36.6,46.8V1866.4z"/>
		<rect x="-1837" y="1774.3" class="st18" width="111.7" height="12.7"/>
	</g>
	<g>
		<path class="st19" d="M-1601.6,1866.4c10.2-6.4,17-17.7,17-30.6c0-19.9-16.2-36.1-36.1-36.1s-36.1,16.2-36.1,36.1
			c0,12.9,6.8,24.3,17,30.6v30l-36.6-46.8v20.7l49.2,63l0.1,0.1v-62v-11.7h0v-1.3c-9.8-2.8-17-11.8-17-22.5c0-10.7,7.2-19.7,17-22.5
			c2-0.6,4.2-0.9,6.4-0.9c2.2,0,4.3,0.3,6.4,0.9c9.8,2.8,17,11.8,17,22.5c0,10.7-7.2,19.7-17,22.5v1.2h0v11.8v62l49.3-63v-20.7
			l-36.6,46.8V1866.4z"/>
		<rect x="-1676.4" y="1774.3" class="st19" width="111.7" height="12.7"/>
	</g>
	<g>
		<path class="st20" d="M-1441,1866.4c10.2-6.4,17-17.7,17-30.6c0-19.9-16.2-36.1-36.1-36.1s-36.1,16.2-36.1,36.1
			c0,12.9,6.8,24.3,17,30.6v30l-36.6-46.8v20.7l49.2,63l0.1,0.1v-62v-11.7h0v-1.3c-9.8-2.8-17-11.8-17-22.5c0-10.7,7.2-19.7,17-22.5
			c2-0.6,4.2-0.9,6.4-0.9c2.2,0,4.3,0.3,6.4,0.9c9.8,2.8,17,11.8,17,22.5c0,10.7-7.2,19.7-17,22.5v1.2h0v11.8v62l49.3-63v-20.7
			l-36.6,46.8V1866.4z"/>
		<rect x="-1515.9" y="1774.3" class="st20" width="111.7" height="12.7"/>
	</g>
	<g>
		<path class="st21" d="M-1929.1,1866.4c10.2-6.4,17-17.7,17-30.6c0-19.9-16.2-36.1-36.1-36.1c-19.9,0-36.1,16.2-36.1,36.1
			c0,12.9,6.8,24.3,17,30.6v30l-36.6-46.8v20.7l49.2,63l0.1,0.1v-62v-11.7h0v-1.3c-9.8-2.8-17-11.8-17-22.5c0-10.7,7.2-19.7,17-22.5
			c2-0.6,4.2-0.9,6.4-0.9c2.2,0,4.3,0.3,6.4,0.9c9.8,2.8,17,11.8,17,22.5c0,10.7-7.2,19.7-17,22.5v1.2h0v11.8v62l49.3-63v-20.7
			l-36.6,46.8V1866.4z"/>
		<rect x="-2003.9" y="1774.3" class="st21" width="111.7" height="12.7"/>
	</g>
	<g>
		<path class="st22" d="M-959,1866.4c10.2-6.4,17-17.7,17-30.6c0-19.9-16.2-36.1-36.1-36.1c-19.9,0-36.1,16.2-36.1,36.1
			c0,12.9,6.8,24.3,17,30.6v30l-36.6-46.8v20.7l49.2,63l0.1,0.1v-62v-11.7h0v-1.3c-9.8-2.8-17-11.8-17-22.5c0-10.7,7.2-19.7,17-22.5
			c2-0.6,4.2-0.9,6.4-0.9c2.2,0,4.3,0.3,6.4,0.9c9.8,2.8,17,11.8,17,22.5c0,10.7-7.2,19.7-17,22.5v1.2h0v11.8v62l49.3-63v-20.7
			l-36.6,46.8V1866.4z"/>
		<rect x="-1033.9" y="1774.3" class="st22" width="111.7" height="12.7"/>
	</g>
	<g>
		<path class="st23" d="M-2089.7,1866.4c10.2-6.4,17-17.7,17-30.6c0-19.9-16.2-36.1-36.1-36.1c-19.9,0-36.1,16.2-36.1,36.1
			c0,12.9,6.8,24.3,17,30.6v30l-36.6-46.8v20.7l49.2,63l0.1,0.1v-62v-11.7h0v-1.3c-9.8-2.8-17-11.8-17-22.5c0-10.7,7.2-19.7,17-22.5
			c2-0.6,4.2-0.9,6.4-0.9c2.2,0,4.3,0.3,6.4,0.9c9.8,2.8,17,11.8,17,22.5c0,10.7-7.2,19.7-17,22.5v1.2h0v11.8v62l49.3-63v-20.7
			l-36.6,46.8V1866.4z"/>
		<rect x="-2164.6" y="1774.3" class="st23" width="111.7" height="12.7"/>
	</g>
	<g>
		<path class="st24" d="M-1119.7,1866.4c10.2-6.4,17-17.7,17-30.6c0-19.9-16.2-36.1-36.1-36.1s-36.1,16.2-36.1,36.1
			c0,12.9,6.8,24.3,17,30.6v30l-36.6-46.8v20.7l49.2,63l0.1,0.1v-62v-11.7h0v-1.3c-9.8-2.8-17-11.8-17-22.5c0-10.7,7.2-19.7,17-22.5
			c2-0.6,4.2-0.9,6.4-0.9s4.3,0.3,6.4,0.9c9.8,2.8,17,11.8,17,22.5c0,10.7-7.2,19.7-17,22.5v1.2h0v11.8v62l49.3-63v-20.7l-36.6,46.8
			V1866.4z"/>
		<rect x="-1194.5" y="1774.3" class="st24" width="111.7" height="12.7"/>
	</g>
	<g>
		<path class="st25" d="M-2250.3,1866.4c10.2-6.4,17-17.7,17-30.6c0-19.9-16.2-36.1-36.1-36.1s-36.1,16.2-36.1,36.1
			c0,12.9,6.8,24.3,17,30.6v30l-36.6-46.8v20.7l49.2,63l0.1,0.1v-62v-11.7h0v-1.3c-9.8-2.8-17-11.8-17-22.5c0-10.7,7.2-19.7,17-22.5
			c2-0.6,4.2-0.9,6.4-0.9s4.3,0.3,6.4,0.9c9.8,2.8,17,11.8,17,22.5c0,10.7-7.2,19.7-17,22.5v1.2h0v11.8v62l49.3-63v-20.7l-36.6,46.8
			V1866.4z"/>
		<rect x="-2325.2" y="1774.3" class="st25" width="111.7" height="12.7"/>
	</g>
	<g>
		<path class="st26" d="M-1280.3,1866.4c10.2-6.4,17-17.7,17-30.6c0-19.9-16.2-36.1-36.1-36.1c-19.9,0-36.1,16.2-36.1,36.1
			c0,12.9,6.8,24.3,17,30.6v30l-36.6-46.8v20.7l49.2,63l0.1,0.1v-62v-11.7h0v-1.3c-9.8-2.8-17-11.8-17-22.5c0-10.7,7.2-19.7,17-22.5
			c2-0.6,4.2-0.9,6.4-0.9c2.2,0,4.3,0.3,6.4,0.9c9.8,2.8,17,11.8,17,22.5c0,10.7-7.2,19.7-17,22.5v1.2h0v11.8v62l49.3-63v-20.7
			l-36.6,46.8V1866.4z"/>
		<rect x="-1355.1" y="1774.3" class="st26" width="111.7" height="12.7"/>
	</g>
	<g>
		<path class="st27" d="M-2732.1,1231.8c10.2-6.4,17-17.7,17-30.6c0-19.9-16.2-36.1-36.1-36.1s-36.1,16.2-36.1,36.1
			c0,12.9,6.8,24.3,17,30.6v30l-36.6-46.8v20.7l49.2,63l0.1,0.1v-62V1225h0v-1.3c-9.8-2.8-17-11.8-17-22.5s7.2-19.7,17-22.5
			c2-0.6,4.2-0.9,6.4-0.9s4.3,0.3,6.4,0.9c9.8,2.8,17,11.8,17,22.5s-7.2,19.7-17,22.5v1.2h0v11.8v62l49.3-63V1215l-36.6,46.8V1231.8
			z"/>
		<rect x="-2807" y="1139.7" class="st27" width="111.7" height="12.7"/>
	</g>
	<g>
		<path class="st28" d="M-2571.6,1231.8c10.2-6.4,17-17.7,17-30.6c0-19.9-16.2-36.1-36.1-36.1s-36.1,16.2-36.1,36.1
			c0,12.9,6.8,24.3,17,30.6v30l-36.6-46.8v20.7l49.2,63l0.1,0.1v-62V1225h0v-1.3c-9.8-2.8-17-11.8-17-22.5s7.2-19.7,17-22.5
			c2-0.6,4.2-0.9,6.4-0.9s4.3,0.3,6.4,0.9c9.8,2.8,17,11.8,17,22.5s-7.2,19.7-17,22.5v1.2h0v11.8v62l49.3-63V1215l-36.6,46.8V1231.8
			z"/>
		<rect x="-2646.5" y="1139.7" class="st28" width="111.7" height="12.7"/>
	</g>
	<g>
		<path class="st29" d="M-2411.1,1231.8c10.2-6.4,17-17.7,17-30.6c0-19.9-16.2-36.1-36.1-36.1s-36.1,16.2-36.1,36.1
			c0,12.9,6.8,24.3,17,30.6v30l-36.6-46.8v20.7l49.2,63l0.1,0.1v-62V1225h0v-1.3c-9.8-2.8-17-11.8-17-22.5s7.2-19.7,17-22.5
			c2-0.6,4.2-0.9,6.4-0.9s4.3,0.3,6.4,0.9c9.8,2.8,17,11.8,17,22.5s-7.2,19.7-17,22.5v1.2h0v11.8v62l49.3-63V1215l-36.6,46.8V1231.8
			z"/>
		<rect x="-2485.9" y="1139.7" class="st29" width="111.7" height="12.7"/>
	</g>
	<g>
		<path class="st30" d="M-1762.1,1231.8c10.2-6.4,17-17.7,17-30.6c0-19.9-16.2-36.1-36.1-36.1s-36.1,16.2-36.1,36.1
			c0,12.9,6.8,24.3,17,30.6v30l-36.6-46.8v20.7l49.2,63l0.1,0.1v-62V1225h0v-1.3c-9.8-2.8-17-11.8-17-22.5s7.2-19.7,17-22.5
			c2-0.6,4.2-0.9,6.4-0.9c2.2,0,4.3,0.3,6.4,0.9c9.8,2.8,17,11.8,17,22.5s-7.2,19.7-17,22.5v1.2h0v11.8v62l49.3-63V1215l-36.6,46.8
			V1231.8z"/>
		<rect x="-1837" y="1139.7" class="st30" width="111.7" height="12.7"/>
	</g>
	<g>
		<path class="st31" d="M-1601.6,1231.8c10.2-6.4,17-17.7,17-30.6c0-19.9-16.2-36.1-36.1-36.1s-36.1,16.2-36.1,36.1
			c0,12.9,6.8,24.3,17,30.6v30l-36.6-46.8v20.7l49.2,63l0.1,0.1v-62V1225h0v-1.3c-9.8-2.8-17-11.8-17-22.5s7.2-19.7,17-22.5
			c2-0.6,4.2-0.9,6.4-0.9c2.2,0,4.3,0.3,6.4,0.9c9.8,2.8,17,11.8,17,22.5s-7.2,19.7-17,22.5v1.2h0v11.8v62l49.3-63V1215l-36.6,46.8
			V1231.8z"/>
		<rect x="-1676.4" y="1139.7" class="st31" width="111.7" height="12.7"/>
	</g>
	<g>
		<path class="st32" d="M-1441,1231.8c10.2-6.4,17-17.7,17-30.6c0-19.9-16.2-36.1-36.1-36.1s-36.1,16.2-36.1,36.1
			c0,12.9,6.8,24.3,17,30.6v30l-36.6-46.8v20.7l49.2,63l0.1,0.1v-62V1225h0v-1.3c-9.8-2.8-17-11.8-17-22.5s7.2-19.7,17-22.5
			c2-0.6,4.2-0.9,6.4-0.9c2.2,0,4.3,0.3,6.4,0.9c9.8,2.8,17,11.8,17,22.5s-7.2,19.7-17,22.5v1.2h0v11.8v62l49.3-63V1215l-36.6,46.8
			V1231.8z"/>
		<rect x="-1515.9" y="1139.7" class="st32" width="111.7" height="12.7"/>
	</g>
	<g>
		<path class="st33" d="M-1929.1,1231.8c10.2-6.4,17-17.7,17-30.6c0-19.9-16.2-36.1-36.1-36.1c-19.9,0-36.1,16.2-36.1,36.1
			c0,12.9,6.8,24.3,17,30.6v30l-36.6-46.8v20.7l49.2,63l0.1,0.1v-62V1225h0v-1.3c-9.8-2.8-17-11.8-17-22.5s7.2-19.7,17-22.5
			c2-0.6,4.2-0.9,6.4-0.9c2.2,0,4.3,0.3,6.4,0.9c9.8,2.8,17,11.8,17,22.5s-7.2,19.7-17,22.5v1.2h0v11.8v62l49.3-63V1215l-36.6,46.8
			V1231.8z"/>
		<rect x="-2003.9" y="1139.7" class="st33" width="111.7" height="12.7"/>
	</g>
	<g>
		<path class="st34" d="M-959,1231.8c10.2-6.4,17-17.7,17-30.6c0-19.9-16.2-36.1-36.1-36.1c-19.9,0-36.1,16.2-36.1,36.1
			c0,12.9,6.8,24.3,17,30.6v30l-36.6-46.8v20.7l49.2,63l0.1,0.1v-62V1225h0v-1.3c-9.8-2.8-17-11.8-17-22.5s7.2-19.7,17-22.5
			c2-0.6,4.2-0.9,6.4-0.9c2.2,0,4.3,0.3,6.4,0.9c9.8,2.8,17,11.8,17,22.5s-7.2,19.7-17,22.5v1.2h0v11.8v62l49.3-63V1215l-36.6,46.8
			V1231.8z"/>
		<rect x="-1033.9" y="1139.7" class="st34" width="111.7" height="12.7"/>
	</g>
	<g>
		<path class="st35" d="M-2089.7,1231.8c10.2-6.4,17-17.7,17-30.6c0-19.9-16.2-36.1-36.1-36.1c-19.9,0-36.1,16.2-36.1,36.1
			c0,12.9,6.8,24.3,17,30.6v30l-36.6-46.8v20.7l49.2,63l0.1,0.1v-62V1225h0v-1.3c-9.8-2.8-17-11.8-17-22.5s7.2-19.7,17-22.5
			c2-0.6,4.2-0.9,6.4-0.9c2.2,0,4.3,0.3,6.4,0.9c9.8,2.8,17,11.8,17,22.5s-7.2,19.7-17,22.5v1.2h0v11.8v62l49.3-63V1215l-36.6,46.8
			V1231.8z"/>
		<rect x="-2164.6" y="1139.7" class="st35" width="111.7" height="12.7"/>
	</g>
	<g>
		<path class="st36" d="M-1119.7,1231.8c10.2-6.4,17-17.7,17-30.6c0-19.9-16.2-36.1-36.1-36.1s-36.1,16.2-36.1,36.1
			c0,12.9,6.8,24.3,17,30.6v30l-36.6-46.8v20.7l49.2,63l0.1,0.1v-62V1225h0v-1.3c-9.8-2.8-17-11.8-17-22.5s7.2-19.7,17-22.5
			c2-0.6,4.2-0.9,6.4-0.9s4.3,0.3,6.4,0.9c9.8,2.8,17,11.8,17,22.5s-7.2,19.7-17,22.5v1.2h0v11.8v62l49.3-63V1215l-36.6,46.8V1231.8
			z"/>
		<rect x="-1194.5" y="1139.7" class="st36" width="111.7" height="12.7"/>
	</g>
	<g>
		<path class="st37" d="M-2250.3,1231.8c10.2-6.4,17-17.7,17-30.6c0-19.9-16.2-36.1-36.1-36.1s-36.1,16.2-36.1,36.1
			c0,12.9,6.8,24.3,17,30.6v30l-36.6-46.8v20.7l49.2,63l0.1,0.1v-62V1225h0v-1.3c-9.8-2.8-17-11.8-17-22.5s7.2-19.7,17-22.5
			c2-0.6,4.2-0.9,6.4-0.9s4.3,0.3,6.4,0.9c9.8,2.8,17,11.8,17,22.5s-7.2,19.7-17,22.5v1.2h0v11.8v62l49.3-63V1215l-36.6,46.8V1231.8
			z"/>
		<rect x="-2325.2" y="1139.7" class="st37" width="111.7" height="12.7"/>
	</g>
	<g>
		<path class="st38" d="M-1280.3,1231.8c10.2-6.4,17-17.7,17-30.6c0-19.9-16.2-36.1-36.1-36.1c-19.9,0-36.1,16.2-36.1,36.1
			c0,12.9,6.8,24.3,17,30.6v30l-36.6-46.8v20.7l49.2,63l0.1,0.1v-62V1225h0v-1.3c-9.8-2.8-17-11.8-17-22.5s7.2-19.7,17-22.5
			c2-0.6,4.2-0.9,6.4-0.9c2.2,0,4.3,0.3,6.4,0.9c9.8,2.8,17,11.8,17,22.5s-7.2,19.7-17,22.5v1.2h0v11.8v62l49.3-63V1215l-36.6,46.8
			V1231.8z"/>
		<rect x="-1355.1" y="1139.7" class="st38" width="111.7" height="12.7"/>
	</g>
	<g class="st0">
		<text transform="matrix(1 0 0 1 1019.7344 1324.2188)" class="st39 st40 st41">Varti</text>
	</g>
	<g>
		<g>
			<path class="st42" d="M2899.7,690.5c-62.6,0-113.5,50.9-113.5,113.5c0,40.6,21.4,76.3,53.5,96.3c12,7.5,25.5,12.8,40,15.4h0
				v-36.9h0v-4.1c-30.9-8.7-53.5-37.2-53.5-70.8s22.7-62,53.5-70.8c6.4-1.8,13.1-2.8,20-2.8c6.9,0,13.6,1,20,2.8
				c30.9,8.7,53.5,37.2,53.5,70.8s-22.7,62-53.5,70.8v3.9h0v37.1h0c14.5-2.6,28-7.9,40-15.4c32.1-20.1,53.5-55.7,53.5-96.3
				C3013.2,741.4,2962.3,690.5,2899.7,690.5z"/>
		</g>
	</g>
	<g>
		<g>
			<polygon class="st42" points="3074.7,847.4 3074.7,912.3 2919.7,1110.6 2919.7,878.6 2959.7,878.6 2959.7,994.5 			"/>
		</g>
	</g>
	<g>
		<g>
			<polygon class="st42" points="2879.7,878.9 2879.7,1110.8 2879.5,1110.6 2724.7,912.6 2724.7,847.6 2839.7,994.7 2839.7,878.9 
							"/>
		</g>
	</g>
	<g>
		<g>
			<rect x="2724.2" y="610.6" class="st42" width="351.4" height="40"/>
		</g>
	</g>
	<g>
		<text transform="matrix(1 0 0 1 2919.6604 1224.5251)" class="st42 st40 st41">Varti</text>
	</g>
	<text transform="matrix(1 0 0 1 2201.8525 220.1082)" class="st40 st41" style="fill:#E14658;">Varti</text>
	<text transform="matrix(1 0 0 1 2201.8525 331.1193)" class="st40 st41" style="fill:#57652A;">Varti</text>
	<text transform="matrix(1 0 0 1 2201.8525 442.1304)" class="st40 st41" style="fill:#4D2C3D;">Varti</text>
	<text transform="matrix(1 0 0 1 2201.8525 553.1415)" class="st40 st41" style="fill:#0E8044;">Varti</text>
	<text transform="matrix(1 0 0 1 2201.8525 664.1526)" class="st40 st41" style="fill:#465C8B;">Varti</text>
	<text transform="matrix(1 0 0 1 2201.8525 775.1637)" class="st40 st41" style="fill:#C06014;">Varti</text>
	<text transform="matrix(1 0 0 1 2201.8525 886.1748)" class="st40 st41" style="fill:#A7D2CB;">Varti</text>
	<text transform="matrix(1 0 0 1 2201.8525 997.1859)" class="st40 st41" style="fill:#F2D388;">Varti</text>
	<text transform="matrix(1 0 0 1 2201.8525 1108.197)" class="st40 st41" style="fill:#C98174;">Varti</text>
	<text transform="matrix(1 0 0 1 2201.8525 1219.2081)" class="st40 st41" style="fill:#874C62;">Varti</text>
	<text transform="matrix(1 0 0 1 2201.8525 1330.2192)" class="st40 st41" style="fill:#DCAE1D;">Varti</text>
	<text transform="matrix(1 0 0 1 2201.8525 1441.2303)" class="st40 st41" style="fill:#00303F;">Varti</text>
	<text transform="matrix(1 0 0 1 2201.8525 1552.2415)" class="st40 st41" style="fill:#D7DD35;">Varti</text>
	<text transform="matrix(1 0 0 1 2201.8525 1663.2526)" class="st40 st41" style="fill:#575DA9;">Varti</text>
	<text transform="matrix(1 0 0 1 2201.8525 1774.2637)" class="st40 st41" style="fill:#E14658;">Varti</text>
	<text transform="matrix(1 0 0 1 2201.8525 1885.2747)" class="st40 st41" style="fill:#E14658;">Varti</text>
	<text transform="matrix(1 0 0 1 2201.8525 1996.2859)" class="st40 st41" style="fill:#E14658;">Varti</text>
	<text transform="matrix(1 0 0 1 2201.8525 85.0947)" class="st42 st40 st41">Varti</text>
	<rect x="3591.7" y="1701.8" class="st43" width="154.8" height="250.4"/>
	<rect x="3341.3" y="1701.8" class="st44" width="250.4" height="250.4"/>
	<g>
		<path class="st45" d="M-2816.5,89.5v221.7h422.9V89.5H-2816.5z M-2807.6,302.8v-203h203v203H-2807.6z M-2531.4,191.2
			c0-16,13-29,29-29s29,13,29,29c0,10.4-5.5,19.5-13.7,24.6v24l29.3-37.5v16.6l-39.5,50.6v-59.2h0v-1c7.9-2.2,13.7-9.5,13.7-18
			c0-8.6-5.8-15.8-13.7-18.1c-1.6-0.5-3.3-0.7-5.1-0.7c-1.8,0-3.5,0.2-5.1,0.7c-7.9,2.2-13.7,9.5-13.7,18.1c0,8.6,5.8,15.8,13.7,18
			v1.1h0v59.2l0-0.1l-39.5-50.5v-16.6l29.3,37.5v-24.1C-2525.9,210.7-2531.4,201.6-2531.4,191.2z M-2457.5,152.1h-89.6v-10.2h89.6
			V152.1z"/>
		<path class="st45" d="M-2690.1,215.8c8.2-5.1,13.7-14.2,13.7-24.6c0-16-13-29-29-29s-29,13-29,29c0,10.4,5.5,19.5,13.7,24.6v24.1
			l-29.3-37.5v16.6l39.5,50.5l0,0.1v-49.8v-9.4h0v-1c-7.9-2.2-13.7-9.5-13.7-18.1s5.8-15.8,13.7-18.1c1.6-0.5,3.3-0.7,5.1-0.7
			s3.5,0.2,5.1,0.7c7.9,2.2,13.7,9.5,13.7,18.1s-5.8,15.8-13.7,18.1v1h0v9.5v49.7l39.5-50.6v-16.6l-29.3,37.5V215.8z"/>
		<rect x="-2750.1" y="141.9" class="st45" width="89.6" height="10.2"/>
	</g>
	<g>
		<path class="st45" d="M-2317,89.5v221.7h422.9V89.5H-2317z M-2308.1,302.8v-203h203v203H-2308.1z M-2031.9,191.2c0-16,13-29,29-29
			s29,13,29,29c0,10.4-5.5,19.5-13.7,24.6v24l29.3-37.5v16.6l-39.5,50.6v-59.2h0v-1c7.9-2.2,13.7-9.5,13.7-18
			c0-8.6-5.8-15.8-13.7-18.1c-1.6-0.5-3.3-0.7-5.1-0.7c-1.8,0-3.5,0.2-5.1,0.7c-7.9,2.2-13.7,9.5-13.7,18.1c0,8.6,5.8,15.8,13.7,18
			v1.1h0v59.2l0-0.1l-39.5-50.5v-16.6l29.3,37.5v-24.1C-2026.4,210.7-2031.9,201.6-2031.9,191.2z M-1958.1,152.1h-89.6v-10.2h89.6
			V152.1z"/>
		<path class="st45" d="M-2190.6,215.8c8.2-5.1,13.7-14.2,13.7-24.6c0-16-13-29-29-29s-29,13-29,29c0,10.4,5.5,19.5,13.7,24.6v24.1
			l-29.3-37.5v16.6l39.5,50.5l0,0.1v-49.8v-9.4h0v-1c-7.9-2.2-13.7-9.5-13.7-18.1s5.8-15.8,13.7-18.1c1.6-0.5,3.3-0.7,5.1-0.7
			s3.5,0.2,5.1,0.7c7.9,2.2,13.7,9.5,13.7,18.1s-5.8,15.8-13.7,18.1v1h0v9.5v49.7l39.5-50.6v-16.6l-29.3,37.5V215.8z"/>
		<rect x="-2250.7" y="141.9" class="st45" width="89.6" height="10.2"/>
	</g>
	<g>
		<path class="st45" d="M-1843.7,89.5v221.7h422.9V89.5H-1843.7z M-1834.8,302.8v-203h203v203H-1834.8z M-1558.5,191.2
			c0-16,13-29,29-29s29,13,29,29c0,10.4-5.5,19.5-13.7,24.6v24l29.3-37.5v16.6l-39.5,50.6v-59.2h0v-1c7.9-2.2,13.7-9.5,13.7-18
			c0-8.6-5.8-15.8-13.7-18.1c-1.6-0.5-3.3-0.7-5.1-0.7c-1.8,0-3.5,0.2-5.1,0.7c-7.9,2.2-13.7,9.5-13.7,18.1c0,8.6,5.8,15.8,13.7,18
			v1.1h0v59.2l0-0.1l-39.5-50.5v-16.6l29.3,37.5v-24.1C-1553.1,210.7-1558.5,201.6-1558.5,191.2z M-1484.7,152.1h-89.6v-10.2h89.6
			V152.1z"/>
		<path class="st45" d="M-1717.2,215.8c8.2-5.1,13.7-14.2,13.7-24.6c0-16-13-29-29-29c-16,0-29,13-29,29c0,10.4,5.5,19.5,13.7,24.6
			v24.1l-29.3-37.5v16.6l39.5,50.5l0,0.1v-49.8v-9.4h0v-1c-7.9-2.2-13.7-9.5-13.7-18.1s5.8-15.8,13.7-18.1c1.6-0.5,3.3-0.7,5.1-0.7
			c1.8,0,3.5,0.2,5.1,0.7c7.9,2.2,13.7,9.5,13.7,18.1s-5.8,15.8-13.7,18.1v1h0v9.5v49.7l39.5-50.6v-16.6l-29.3,37.5V215.8z"/>
		<rect x="-1777.3" y="141.9" class="st45" width="89.6" height="10.2"/>
	</g>
	<g>
		<path class="st45" d="M-1340.6,89.5v221.7h422.9V89.5H-1340.6z M-1331.7,302.8v-203h203v203H-1331.7z M-1055.4,191.2
			c0-16,13-29,29-29s29,13,29,29c0,10.4-5.5,19.5-13.7,24.6v24l29.3-37.5v16.6l-39.5,50.6v-59.2h0v-1c7.9-2.2,13.7-9.5,13.7-18
			c0-8.6-5.8-15.8-13.7-18.1c-1.6-0.5-3.3-0.7-5.1-0.7c-1.8,0-3.5,0.2-5.1,0.7c-7.9,2.2-13.7,9.5-13.7,18.1c0,8.6,5.8,15.8,13.7,18
			v1.1h0v59.2l0-0.1l-39.5-50.5v-16.6l29.3,37.5v-24.1C-1050,210.7-1055.4,201.6-1055.4,191.2z M-981.6,152.1h-89.6v-10.2h89.6
			V152.1z"/>
		<path class="st45" d="M-1214.2,215.8c8.2-5.1,13.7-14.2,13.7-24.6c0-16-13-29-29-29c-16,0-29,13-29,29c0,10.4,5.5,19.5,13.7,24.6
			v24.1l-29.3-37.5v16.6l39.5,50.5l0,0.1v-49.8v-9.4h0v-1c-7.9-2.2-13.7-9.5-13.7-18.1s5.8-15.8,13.7-18.1c1.6-0.5,3.3-0.7,5.1-0.7
			c1.8,0,3.5,0.2,5.1,0.7c7.9,2.2,13.7,9.5,13.7,18.1s-5.8,15.8-13.7,18.1v1h0v9.5v49.7l39.5-50.6v-16.6l-29.3,37.5V215.8z"/>
		<rect x="-1274.2" y="141.9" class="st45" width="89.6" height="10.2"/>
	</g>
	<g>
		<g>
			<path class="st2" d="M-1037.7,535.2c7.3,13.2,14.1,26.6,20.4,40.3c1.8,4,7.2,6,11.2,5.4c4.6-0.7,7.8-3.7,9.4-8.1
				c7.9-22,15.8-44,23.7-66.1c2-5.7-2.3-12.3-7.9-13.8c-6.2-1.7-11.8,2.1-13.8,7.9c-7.9,22-15.8,44-23.7,66.1
				c6.9-0.9,13.7-1.8,20.6-2.7c-6.3-13.7-13.1-27.1-20.4-40.3C-1025.3,511.1-1044.7,522.5-1037.7,535.2L-1037.7,535.2z"/>
		</g>
	</g>
	<g>
		<g>
			<path class="st2" d="M-1513.5,535.2c7.3,13.2,14.1,26.6,20.4,40.3c1.8,4,7.2,6,11.2,5.4c4.6-0.7,7.8-3.7,9.4-8.1
				c7.9-22,15.8-44,23.7-66.1c2-5.7-2.3-12.3-7.9-13.8c-6.2-1.7-11.8,2.1-13.8,7.9c-7.9,22-15.8,44-23.7,66.1
				c6.9-0.9,13.7-1.8,20.6-2.7c-6.3-13.7-13.1-27.1-20.4-40.3C-1501.1,511.1-1520.5,522.5-1513.5,535.2L-1513.5,535.2z"/>
		</g>
	</g>
	<g>
		<g>
			<path class="st2" d="M-972.6,535.2c7.3,13.2,14.1,26.6,20.4,40.3c1.8,4,7.2,6,11.2,5.4c4.6-0.7,7.8-3.7,9.4-8.1
				c7.9-22,15.8-44,23.7-66.1c2-5.7-2.3-12.3-7.9-13.8c-6.2-1.7-11.8,2.1-13.8,7.9c-7.9,22-15.8,44-23.7,66.1
				c6.9-0.9,13.7-1.8,20.6-2.7c-6.3-13.7-13.1-27.1-20.4-40.3C-960.1,511.1-979.6,522.5-972.6,535.2L-972.6,535.2z"/>
		</g>
	</g>
	<g>
		<g>
			<path class="st35" d="M-1958.3,501c-10.9,21.6-25,40.9-42.4,57.7c-10.4,10.1,5.5,26,15.9,15.9c18.6-18,34.2-39.1,45.9-62.3
				c2.7-5.4,1.4-12.2-4-15.4C-1947.9,494.1-1955.5,495.6-1958.3,501L-1958.3,501z"/>
		</g>
	</g>
	<g>
		<g>
			<path class="st35" d="M-1993.9,515c11.8,20.8,26.4,40,43.1,57c10.2,10.3,26.1-5.6,15.9-15.9c-15.5-15.7-28.7-33.3-39.6-52.5
				C-1981.6,491.1-2001.1,502.4-1993.9,515L-1993.9,515z"/>
		</g>
	</g>
	<g>
		<g>
			<path class="st35" d="M-2432.1,501c-10.9,21.6-25,40.9-42.4,57.7c-10.4,10.1,5.5,26,15.9,15.9c18.6-18,34.2-39.1,45.9-62.3
				c2.7-5.4,1.4-12.2-4-15.4C-2421.8,494.1-2429.4,495.6-2432.1,501L-2432.1,501z"/>
		</g>
	</g>
	<g>
		<g>
			<path class="st35" d="M-2467.8,515c11.8,20.8,26.4,40,43.1,57c10.2,10.3,26.1-5.6,15.9-15.9c-15.5-15.7-28.7-33.3-39.6-52.5
				C-2455.5,491.1-2475,502.4-2467.8,515L-2467.8,515z"/>
		</g>
	</g>
</g>
<g id="Layer_3" class="st0">
	<rect class="st7" width="2000" height="2000"/>
	<g class="st46">
		<path class="st45" d="M906.7,938.1c-50.2,31.3-83.6,87.1-83.6,150.5c0,97.8,79.5,177.3,177.3,177.3c97.8,0,177.3-79.5,177.3-177.3
			c0-63.4-33.4-119.1-83.6-150.5V790.7l179.6,229.8V919l-241.8-309.3l-0.3-0.4V914v57.6h0v6.4c48.2,13.7,83.6,58,83.6,110.5
			c0,52.5-35.4,96.9-83.6,110.5c-9.9,2.8-20.4,4.3-31.2,4.3c-10.8,0-21.3-1.5-31.2-4.3c-48.2-13.7-83.6-58-83.6-110.5
			c0-52.5,35.4-96.9,83.6-110.5v-6h0v-58V609.7L727.1,919.4v101.4l179.6-229.8V938.1z"/>
		<rect x="725.6" y="1328.2" class="st45" width="548.8" height="62.5"/>
	</g>
</g>
</svg>
